<mxfile host="app.diagrams.net" modified="2024-02-28T03:14:32.483Z" agent="Mozilla/5.0 (Macintosh; Intel Mac OS X 10_15_7) AppleWebKit/537.36 (KHTML, like Gecko) Chrome/122.0.0.0 Safari/537.36" version="23.1.7" etag="G46Cmg8YgYGjouZo7lWU" type="github">
  <diagram name="Page-1" id="dblIZcmnAZxsvS4MiLfr">
    <mxGraphModel>
      <root>
        <mxCell id="0" />
        <mxCell id="1" parent="0" />
      </root>
    </mxGraphModel>
  </diagram>
</mxfile>
